<svg id="Layer_1" data-name="Layer 1" xmlns="http://www.w3.org/2000/svg" viewBox="0 0 13 14"><defs><style>.cls-1{fill:#718198;fill-rule:evenodd;}</style></defs><title>ic-cart-refresh-2</title><path class="cls-1" d="M6.94,0a3.59,3.59,0,0,0-2.5,1,3.36,3.36,0,0,0-1,2.41v.9H1.74a.55.55,0,0,0-.56.49L.44,13.42a.53.53,0,0,0,.15.41A.55.55,0,0,0,1,14H12.88a.55.55,0,0,0,.41-.17.53.53,0,0,0,.15-.41L12.69,4.8a.54.54,0,0,0-.55-.49H10.47v-.9A3.33,3.33,0,0,0,9.43,1,3.59,3.59,0,0,0,6.94,0ZM4.52,4.31H9.35v-.9a2.3,2.3,0,0,0-.7-1.65,2.49,2.49,0,0,0-3.42,0,2.31,2.31,0,0,0-.71,1.65Zm5.17,2a.31.31,0,0,0-.31.31v.55a3,3,0,0,0-1.4-1A3,3,0,0,0,4,8.52a.29.29,0,0,0,0,.16.34.34,0,0,0,.06.15l.12.11A.43.43,0,0,0,4.39,9h.16l.14-.07A.6.6,0,0,0,4.8,8.8a.47.47,0,0,0,.06-.15,2.12,2.12,0,0,1,.56-1.14A2.17,2.17,0,0,1,7.78,7a2.16,2.16,0,0,1,1,.79H8.24a.31.31,0,1,0,0,.62H10V6.62a.31.31,0,0,0-.31-.31ZM9.57,9a.32.32,0,0,1,.16,0,.36.36,0,0,1,.14.1.31.31,0,0,1,.08.15.33.33,0,0,1,0,.17A3.06,3.06,0,0,1,9.22,11a3.1,3.1,0,0,1-1.48.89A3.05,3.05,0,0,1,6,11.84a3.09,3.09,0,0,1-1.4-1v.55a.31.31,0,1,1-.62,0V9.62H5.76a.31.31,0,1,1,0,.62H5.22a2.18,2.18,0,0,0,3.4.22,2.09,2.09,0,0,0,.52-1.1.51.51,0,0,1,.14-.26A.42.42,0,0,1,9.56,9Z" transform="translate(-0.44)"/></svg>