<svg width="16" height="16" viewBox="0 0 16 16" fill="none" xmlns="http://www.w3.org/2000/svg">
<path d="M0 8C0 3.58172 3.58172 0 8 0C12.4183 0 16 3.58172 16 8C16 12.4183 12.4183 16 8 16C3.58172 16 0 12.4183 0 8Z" fill="#718198"/>
<path fill-rule="evenodd" clip-rule="evenodd" d="M8 2.5C7.35211 2.5 6.73076 2.75664 6.27264 3.21346C5.81452 3.67028 5.55714 4.28986 5.55714 4.9359V5.57692H4.4C4.1994 5.57692 4.03228 5.73025 4.01562 5.9296L3.50133 12.0834C3.49238 12.1906 3.52884 12.2967 3.60188 12.3758C3.67491 12.455 3.77785 12.5 3.88572 12.5H12.1143C12.2222 12.5 12.3251 12.455 12.3981 12.3758C12.4712 12.2967 12.5076 12.1906 12.4987 12.0834L11.9844 5.9296C11.9677 5.73025 11.8006 5.57692 11.6 5.57692H10.4429V4.9359C10.4429 4.28986 10.1855 3.67028 9.72736 3.21346C9.26924 2.75664 8.64789 2.5 8 2.5ZM6.32857 4.9359V5.57692H9.67143V4.9359C9.67143 4.49387 9.49533 4.06995 9.18188 3.75739C8.86842 3.44483 8.44329 3.26923 8 3.26923C7.55671 3.26923 7.13158 3.44483 6.81812 3.75739C6.50467 4.06995 6.32857 4.49387 6.32857 4.9359ZM9.90555 7.00754C9.84856 7.00754 9.79391 7.0309 9.75362 7.07247C9.71333 7.11404 9.69069 7.17043 9.69069 7.22922V7.6238C9.44375 7.29187 9.10801 7.0418 8.72492 6.90445C8.34182 6.76709 7.92813 6.74847 7.5349 6.85087C7.14166 6.95327 6.78609 7.17222 6.51206 7.4807C6.23803 7.78917 6.05753 8.17367 5.99283 8.58676C5.98719 8.62514 5.98893 8.66429 5.99795 8.70198C6.00698 8.73967 6.0231 8.77516 6.04542 8.80642C6.06774 8.83767 6.0958 8.86409 6.12801 8.88416C6.16022 8.90422 6.19595 8.91755 6.23315 8.92337C6.27035 8.92919 6.3083 8.9274 6.34483 8.91809C6.38136 8.90878 6.41575 8.89214 6.44605 8.86912C6.47634 8.84609 6.50195 8.81714 6.5214 8.7839C6.54085 8.75067 6.55376 8.71381 6.5594 8.67543C6.60812 8.37094 6.74376 8.08836 6.94898 7.86384C7.1542 7.63932 7.41967 7.48306 7.71143 7.41505C8.0032 7.34704 8.30799 7.37038 8.58683 7.48206C8.86567 7.59375 9.10588 7.78872 9.27674 8.04203H8.90289C8.84591 8.04203 8.79126 8.06538 8.75097 8.10696C8.71067 8.14853 8.68804 8.20491 8.68804 8.2637C8.68804 8.3225 8.71067 8.37888 8.75097 8.42045C8.79126 8.46202 8.84591 8.48538 8.90289 8.48538H10.1204V7.22922C10.1204 7.17043 10.0978 7.11404 10.0575 7.07247C10.0172 7.0309 9.96253 7.00754 9.90555 7.00754ZM9.81884 8.92693C9.85917 8.92705 9.899 8.93615 9.93561 8.95362C9.97221 8.97108 10.0047 8.9965 10.0309 9.02813C10.0571 9.05976 10.0764 9.09686 10.0874 9.13688C10.0984 9.17691 10.101 9.21891 10.0948 9.26003C10.0319 9.6743 9.85264 10.0604 9.57915 10.3706C9.30566 10.6808 8.94998 10.9013 8.55618 11.0049C8.16238 11.1086 7.74777 11.0907 7.3637 10.9536C6.97963 10.8165 6.643 10.5661 6.3955 10.2336V10.6281C6.3955 10.6869 6.37286 10.7433 6.33257 10.7849C6.29227 10.8265 6.23763 10.8498 6.18064 10.8498C6.12366 10.8498 6.06901 10.8265 6.02872 10.7849C5.98842 10.7433 5.96579 10.6869 5.96579 10.6281V9.37198H7.1833C7.24028 9.37198 7.29493 9.39534 7.33522 9.43691C7.37552 9.47848 7.39815 9.53486 7.39815 9.59366C7.39815 9.65245 7.37552 9.70883 7.33522 9.7504C7.29493 9.79198 7.24028 9.81533 7.1833 9.81533H6.80945C6.98656 10.0779 7.23785 10.2776 7.52906 10.3874C7.82026 10.4972 8.13719 10.5116 8.43661 10.4286C8.71685 10.3542 8.96967 10.1964 9.1636 9.97479C9.35752 9.7532 9.48398 9.47765 9.52722 9.18245C9.53707 9.11175 9.57122 9.04705 9.62343 9.00015C9.67565 8.95325 9.74245 8.92727 9.81168 8.92693H9.81884Z" fill="white"/>
</svg>
