<svg width="16" height="16" viewBox="0 0 16 16" fill="none" xmlns="http://www.w3.org/2000/svg">
<path fill-rule="evenodd" clip-rule="evenodd" d="M13.4444 4.30556L14.3778 5.00556C14.571 5.15045 14.7278 5.33834 14.8358 5.55433C14.9438 5.77033 15 6.00851 15 6.25V13.4444C15 13.857 14.8361 14.2527 14.5444 14.5444C14.2526 14.8361 13.857 15 13.4444 15H7.99998V11.1111H14.2222V7.22222H7.99998V4.11111C7.89684 4.11111 7.79793 4.07014 7.72499 3.99721C7.65206 3.92428 7.61109 3.82536 7.61109 3.72222V1.38889C7.61109 1.28575 7.65206 1.18683 7.72499 1.1139C7.79793 1.04097 7.89684 1 7.99998 1H13.4444C13.5476 1 13.6465 1.04097 13.7194 1.1139C13.7923 1.18683 13.8333 1.28575 13.8333 1.38889V3.72222C13.8333 3.82536 13.7923 3.92428 13.7194 3.99721C13.6465 4.07014 13.5476 4.11111 13.4444 4.11111V4.30556ZM13.0555 1.77778H8.38887V3.33333H13.0555V1.77778ZM8.89166 13.3305C8.96459 13.4035 9.06351 13.4444 9.16665 13.4444H14.2222V12.6667H9.16665C9.06351 12.6667 8.96459 12.7076 8.89166 12.7806C8.81873 12.8535 8.77776 12.9524 8.77776 13.0556C8.77776 13.1587 8.81873 13.2576 8.89166 13.3305Z" fill="#718198"/>
<path fill-rule="evenodd" clip-rule="evenodd" d="M6.83333 4.11112H1.38889C1.28575 4.11112 1.18683 4.15209 1.1139 4.22502C1.04097 4.29795 1 4.39687 1 4.50001V14.6111C1 14.7143 1.04097 14.8132 1.1139 14.8861C1.18683 14.959 1.28575 15 1.38889 15H6.83333C6.87591 15.0001 6.91813 14.9922 6.95778 14.9767C7.03439 14.9508 7.10103 14.9017 7.14843 14.8362C7.19583 14.7706 7.22162 14.692 7.22222 14.6111V4.50001C7.22188 4.44207 7.20859 4.38493 7.18333 4.33279C7.15181 4.26661 7.10223 4.21069 7.04031 4.17147C6.97838 4.13225 6.90663 4.11133 6.83333 4.11112ZM2.94444 13.0556C2.79061 13.0556 2.64024 13.01 2.51233 12.9245C2.38443 12.839 2.28474 12.7176 2.22587 12.5754C2.167 12.4333 2.1516 12.2769 2.18161 12.126C2.21162 11.9752 2.2857 11.8366 2.39447 11.7278C2.50325 11.619 2.64183 11.545 2.79271 11.515C2.94358 11.4849 3.09997 11.5003 3.24209 11.5592C3.38421 11.6181 3.50568 11.7178 3.59114 11.8457C3.67661 11.9736 3.72222 12.124 3.72222 12.2778C3.72222 12.4841 3.64028 12.6819 3.49442 12.8278C3.34855 12.9736 3.15072 13.0556 2.94444 13.0556ZM2.94444 10.3333C2.79061 10.3333 2.64024 10.2877 2.51233 10.2023C2.38443 10.1168 2.28474 9.99533 2.22587 9.85321C2.167 9.71109 2.1516 9.5547 2.18161 9.40383C2.21162 9.25295 2.2857 9.11437 2.39447 9.00559C2.50325 8.89682 2.64183 8.82274 2.79271 8.79273C2.94358 8.76272 3.09997 8.77812 3.24209 8.83699C3.38421 8.89586 3.50568 8.99555 3.59114 9.12346C3.67661 9.25136 3.72222 9.40174 3.72222 9.55556C3.72222 9.76184 3.64028 9.95967 3.49442 10.1055C3.34855 10.2514 3.15072 10.3333 2.94444 10.3333ZM2.94444 7.61112C2.79061 7.61112 2.64024 7.56551 2.51233 7.48004C2.38443 7.39458 2.28474 7.27311 2.22587 7.13099C2.167 6.98887 2.1516 6.83248 2.18161 6.68161C2.21162 6.53073 2.2857 6.39215 2.39447 6.28337C2.50325 6.1746 2.64183 6.10052 2.79271 6.07051C2.94358 6.0405 3.09997 6.0559 3.24209 6.11477C3.38421 6.17364 3.50568 6.27333 3.59114 6.40123C3.67661 6.52914 3.72222 6.67951 3.72222 6.83334C3.72222 7.03962 3.64028 7.23745 3.49442 7.38332C3.34855 7.52918 3.15072 7.61112 2.94444 7.61112ZM5.27778 13.0556C5.12395 13.0556 4.97357 13.01 4.84567 12.9245C4.71776 12.839 4.61807 12.7176 4.5592 12.5754C4.50034 12.4333 4.48493 12.2769 4.51494 12.126C4.54496 11.9752 4.61903 11.8366 4.72781 11.7278C4.83658 11.619 4.97517 11.545 5.12604 11.515C5.27691 11.4849 5.4333 11.5003 5.57542 11.5592C5.71754 11.6181 5.83901 11.7178 5.92448 11.8457C6.00994 11.9736 6.05556 12.124 6.05556 12.2778C6.05556 12.4841 5.97361 12.6819 5.82775 12.8278C5.68189 12.9736 5.48406 13.0556 5.27778 13.0556ZM5.27778 10.3333C5.12395 10.3333 4.97357 10.2877 4.84567 10.2023C4.71776 10.1168 4.61807 9.99533 4.5592 9.85321C4.50034 9.71109 4.48493 9.5547 4.51494 9.40383C4.54496 9.25295 4.61903 9.11437 4.72781 9.00559C4.83658 8.89682 4.97517 8.82274 5.12604 8.79273C5.27691 8.76272 5.4333 8.77812 5.57542 8.83699C5.71754 8.89586 5.83901 8.99555 5.92448 9.12346C6.00994 9.25136 6.05556 9.40174 6.05556 9.55556C6.05556 9.76184 5.97361 9.95967 5.82775 10.1055C5.68189 10.2514 5.48406 10.3333 5.27778 10.3333ZM5.27778 7.61112C5.12395 7.61112 4.97357 7.56551 4.84567 7.48004C4.71776 7.39458 4.61807 7.27311 4.5592 7.13099C4.50034 6.98887 4.48493 6.83248 4.51494 6.68161C4.54496 6.53073 4.61903 6.39215 4.72781 6.28337C4.83658 6.1746 4.97517 6.10052 5.12604 6.07051C5.27691 6.0405 5.4333 6.0559 5.57542 6.11477C5.71754 6.17364 5.83901 6.27333 5.92448 6.40123C6.00994 6.52914 6.05556 6.67951 6.05556 6.83334C6.05556 7.03962 5.97361 7.23745 5.82775 7.38332C5.68189 7.52918 5.48406 7.61112 5.27778 7.61112Z" fill="#718198"/>
<path d="M10.7222 7.61112C10.6191 7.61112 10.5202 7.65209 10.4472 7.72502C10.3743 7.79795 10.3333 7.89687 10.3333 8.00001V8.77779H9.55556C9.45242 8.77779 9.3535 8.81876 9.28057 8.89169C9.20764 8.96462 9.16667 9.06354 9.16667 9.16668C9.16667 9.26982 9.20764 9.36873 9.28057 9.44166C9.3535 9.51459 9.45242 9.55556 9.55556 9.55556H10.3333V10.3333C10.3333 10.4365 10.3743 10.5354 10.4472 10.6083C10.5202 10.6813 10.6191 10.7222 10.7222 10.7222C10.8254 10.7222 10.9243 10.6813 10.9972 10.6083C11.0701 10.5354 11.1111 10.4365 11.1111 10.3333V9.55556H11.8889C11.992 9.55556 12.0909 9.51459 12.1639 9.44166C12.2368 9.36873 12.2778 9.26982 12.2778 9.16668C12.2778 9.06354 12.2368 8.96462 12.1639 8.89169C12.0909 8.81876 11.992 8.77779 11.8889 8.77779H11.1111V8.00001C11.1111 7.89687 11.0701 7.79795 10.9972 7.72502C10.9243 7.65209 10.8254 7.61112 10.7222 7.61112Z" fill="#718198"/>
</svg>
