<svg width="14" height="14" viewBox="0 0 14 14" fill="none" xmlns="http://www.w3.org/2000/svg">
<path d="M7.50159 3.10074C7.50159 2.8246 7.27774 2.60074 7.00159 2.60074C6.72545 2.60074 6.50159 2.8246 6.50159 3.10074V7.00058C6.50159 7.18996 6.60859 7.36309 6.77799 7.44779L9.37788 8.74774C9.62487 8.87123 9.9252 8.77112 10.0487 8.52413C10.1722 8.27714 10.0721 7.9768 9.82509 7.85331L7.50159 6.69156V3.10074Z" fill="#718198"/>
<path fill-rule="evenodd" clip-rule="evenodd" d="M6.99997 0.000244141C3.13413 0.000244141 0.000244141 3.13413 0.000244141 6.99997C0.000244141 10.8658 3.13413 13.9997 6.99997 13.9997C10.8658 13.9997 13.9997 10.8658 13.9997 6.99997C13.9997 3.13413 10.8658 0.000244141 6.99997 0.000244141ZM1.00024 6.99997C1.00024 3.68641 3.68641 1.00024 6.99997 1.00024C10.3135 1.00024 12.9997 3.68641 12.9997 6.99997C12.9997 10.3135 10.3135 12.9997 6.99997 12.9997C3.68641 12.9997 1.00024 10.3135 1.00024 6.99997Z" fill="#718198"/>
</svg>
