<svg width="14" height="14" viewBox="0 0 14 14" fill="none" xmlns="http://www.w3.org/2000/svg">
<path fill-rule="evenodd" clip-rule="evenodd" d="M13.1589 6.14634H13.0801C12.6859 3.46717 10.5745 1.36585 7.90238 0.971857V0.875547C7.90238 0.393996 7.50814 0 7.02628 0C6.54443 0 6.14143 0.393996 6.14143 0.875547V0.954346H6.13267C3.45181 1.33959 1.34919 3.44966 0.963705 6.12883H0.876095C0.394243 6.12883 0 6.52283 0 7.00438C0 7.48593 0.394243 7.87992 0.876095 7.87992H0.963705L0.954944 7.87117C1.33166 10.5503 3.44305 12.6517 6.11514 13.0457V13.1245C6.11514 13.606 6.50939 14 6.99124 14C7.47309 14 7.86733 13.606 7.86733 13.1245V13.0457V13.0369C10.5394 12.6429 12.6421 10.5328 13.0363 7.86241H13.1239C13.6058 7.86241 14 7.46842 14 6.98687C14 6.50532 13.6058 6.11132 13.1239 6.11132L13.1589 6.14634ZM7.88486 11.3121C7.84105 10.8743 7.48185 10.5241 7.02628 10.5241C6.57071 10.5241 6.21151 10.8743 6.16771 11.3121L6.15895 11.3033C4.42428 10.9443 3.07509 9.596 2.72466 7.87117C3.1627 7.82739 3.51314 7.46842 3.51314 7.01313C3.51314 6.55785 3.1627 6.19887 2.72466 6.1551H2.71589C3.06633 4.42151 4.41552 3.07317 6.14143 2.7142C6.18523 3.15197 6.54443 3.50219 7 3.50219C7.45557 3.50219 7.81477 3.15197 7.85857 2.7142C9.58448 3.05566 10.9424 4.42151 11.2929 6.14634C10.8548 6.19012 10.5044 6.54909 10.5044 7.00438C10.5044 7.45966 10.8548 7.81864 11.2929 7.86241V7.85366C10.9337 9.57849 9.58448 10.9268 7.85857 11.2858L7.88486 11.3121ZM7.02628 5.27079C6.06258 5.27079 5.27409 6.05879 5.27409 7.02189C5.27409 7.98499 6.06258 8.77298 7.02628 8.77298C7.98999 8.77298 8.77847 7.98499 8.77847 7.02189C8.77847 6.05879 7.98999 5.27079 7.02628 5.27079Z" fill="#718198"/>
</svg>
