<svg width="16" height="16" viewBox="0 0 16 16" fill="none" xmlns="http://www.w3.org/2000/svg">
<path fill-rule="evenodd" clip-rule="evenodd" d="M7.27076 6.47287C7.51799 6.31332 7.80585 6.22787 8.10027 6.22653C8.49244 6.22531 8.87033 6.37326 9.15691 6.64035C9.39911 6.87302 9.55084 7.18369 9.58519 7.51743C9.61954 7.85104 9.53428 8.18613 9.34453 8.46298C9.17774 8.70212 8.94425 8.88705 8.67302 8.99509C8.40041 9.1041 8.10186 9.13144 7.81389 9.07382C7.52294 9.02365 7.25423 8.8862 7.04362 8.67978C6.83632 8.48044 6.69504 8.2225 6.63875 7.94089C6.58171 7.66574 6.6128 7.37961 6.72762 7.12314C6.84024 6.85751 7.02925 6.6312 7.27076 6.47287ZM8.10027 8.28561C8.26825 8.28354 8.42974 8.22055 8.55452 8.10837C8.61128 8.05124 8.6562 7.98361 8.6867 7.90927C8.71721 7.83481 8.73269 7.75522 8.73227 7.67477C8.73594 7.55246 8.70144 7.43198 8.63353 7.33005C8.55713 7.23312 8.45905 7.15561 8.34715 7.10336C8.22777 7.06918 8.10115 7.06918 7.98176 7.10336C7.85791 7.12277 7.74362 7.18149 7.65589 7.27084C7.56482 7.35361 7.50238 7.4631 7.47754 7.58347C7.4527 7.70383 7.46673 7.82895 7.51764 7.94089C7.57074 8.04184 7.6534 8.12436 7.75464 8.17734C7.85652 8.2468 7.97683 8.28452 8.10027 8.28561Z" fill="#718198"/>
<path fill-rule="evenodd" clip-rule="evenodd" d="M14.7067 3.61569C14.8245 3.77341 14.9147 3.95004 14.9734 4.13779C15.0089 4.32333 15.0089 4.51389 14.9734 4.69943L14.2229 11.2118C14.1745 11.5996 13.976 11.9531 13.6699 12.197C13.5015 12.3109 13.3143 12.3943 13.1168 12.4432V12.5516C13.1108 12.7492 13.0649 12.9436 12.9817 13.123C12.8986 13.3026 12.78 13.4633 12.633 13.596C12.3443 13.8586 11.967 14.0029 11.5763 14H2.39243C2.0185 13.9837 1.66504 13.825 1.40491 13.5566C1.27536 13.4273 1.17285 13.2737 1.10334 13.1045C1.03383 12.9354 0.998716 12.7541 1.00004 12.5714V5.97031C1.01293 5.60043 1.16446 5.24887 1.42467 4.98508C1.69817 4.69699 2.07395 4.52719 2.47143 4.51218H2.80719L2.97506 3.36935C2.98924 3.17661 3.04302 2.98874 3.13307 2.8176C3.2131 2.61813 3.34215 2.44199 3.50832 2.30527C3.66607 2.17905 3.84731 2.0853 4.04158 2.02939C4.23712 1.9902 4.43855 1.9902 4.63409 2.02939L13.6699 3.01462C13.8772 3.04501 14.0758 3.11887 14.2525 3.23141C14.4274 3.32895 14.5816 3.45944 14.7067 3.61569ZM13.1563 5.97031V11.2708L13.9464 4.65012C13.961 4.59189 13.961 4.53098 13.9464 4.47275C13.936 4.4166 13.9084 4.36496 13.8674 4.32504C13.8286 4.2778 13.7799 4.25009 13.7104 4.2269L13.5514 4.20676L4.52546 3.15256C4.39637 3.14682 4.26867 3.18124 4.16009 3.25107C4.0757 3.32919 4.02006 3.43332 4.00208 3.54672L3.88358 4.53195H11.5566C11.9697 4.53671 12.3654 4.69882 12.6626 4.98508C12.9443 5.24081 13.1203 5.59213 13.1563 5.97031ZM8.55452 10.5615L12.0701 8.59103L12.0898 5.97031C12.0843 5.8392 12.0276 5.71542 11.9318 5.62546C11.8288 5.53244 11.6955 5.47995 11.5566 5.47775H2.47143C2.3529 5.48911 2.2433 5.54562 2.1653 5.63535C2.08723 5.72885 2.04832 5.84885 2.05668 5.97031V10.2068L3.96258 8.92599C4.24152 8.69492 4.58797 8.56015 4.95009 8.54172H5.04885C5.41083 8.56076 5.75705 8.69553 6.03636 8.92599L7.81389 10.5615C7.92543 10.6294 8.05356 10.6653 8.18421 10.6653C8.31486 10.6653 8.44299 10.6294 8.55452 10.5615ZM4.53534 9.70432L2.05668 11.4778L2.0863 12.6009C2.0863 12.6515 2.0944 12.6999 2.10373 12.7486C2.1252 12.7935 2.15541 12.8338 2.19262 12.8669C2.21336 12.8827 2.2355 12.8963 2.25873 12.9079C2.2818 12.9194 2.30595 12.9288 2.33087 12.9359H11.5862C11.7221 12.9359 11.8541 12.8908 11.9615 12.8078C11.982 12.7951 12.0013 12.7806 12.0191 12.7645C12.0465 12.7397 12.0703 12.7113 12.0898 12.6798C12.0993 12.6277 12.0993 12.5742 12.0898 12.5221V9.7634L9.12729 11.4383C8.86302 11.5921 8.56411 11.6768 8.25828 11.6847C7.84572 11.6944 7.44435 11.5504 7.1325 11.2807L5.33523 9.75363C5.2289 9.65683 5.09348 9.59799 4.95009 9.58615C4.80186 9.57211 4.65379 9.61435 4.53534 9.70432Z" fill="#718198"/>
</svg>
