<svg width="16" height="16" viewBox="0 0 16 16" fill="none" xmlns="http://www.w3.org/2000/svg">
<path d="M0 8C0 3.58172 3.58172 0 8 0C12.4183 0 16 3.58172 16 8C16 12.4183 12.4183 16 8 16C3.58172 16 0 12.4183 0 8Z" fill="#718198"/>
<path fill-rule="evenodd" clip-rule="evenodd" d="M11.0511 9.80563C11.2762 10.0359 11.5 10.3093 11.5 10.6523V12.7C11.5 12.8657 11.3656 13 11.1998 13L4.64135 12.9971C4.61951 12.9938 4.59853 12.9858 4.57965 12.9738C4.56078 12.9618 4.54438 12.946 4.53143 12.9272C4.51849 12.9085 4.50925 12.8872 4.50427 12.8646C4.49928 12.842 4.49866 12.8187 4.50243 12.7958L4.50238 10.5725C4.50238 10.2534 4.69432 9.97004 4.90619 9.74309C5.11807 9.51614 5.39088 9.36238 5.68821 9.30234L7.09519 8.98653V8.71063C6.77191 8.5565 6.49397 8.3142 6.29034 8.00899C6.08671 7.70378 5.96485 7.34685 5.93748 6.9754C5.79211 6.94512 5.65716 6.87441 5.54677 6.77066C5.43637 6.66691 5.35458 6.53394 5.30995 6.38566C5.26532 6.23738 5.25949 6.07924 5.29307 5.92779C5.32666 5.77633 5.39842 5.63713 5.50085 5.52475C5.45124 5.23844 5.32058 4.409 5.61663 3.78953C5.99206 3 7.19443 3 7.91221 3C8.42657 3 8.68457 3.18914 8.802 3.32102C9.05008 3.25855 9.62893 3.17352 10.0093 3.56742C10.5187 4.10187 10.2839 5.20027 10.2276 5.42931C10.3547 5.52976 10.4514 5.66652 10.5062 5.82319C10.561 5.97986 10.5716 6.14979 10.5367 6.31261C10.5018 6.47543 10.4229 6.62423 10.3094 6.74118C10.1959 6.85812 10.0527 6.93824 9.89686 6.97193C9.86949 7.34338 9.74764 7.70031 9.54401 8.00552C9.34038 8.31073 9.06243 8.55303 8.73915 8.70715V8.98653L10.2331 9.35613C10.5189 9.4369 10.826 9.57533 11.0511 9.80563ZM7.29697 12.7173H8.53572L9.01204 9.62509L7.97671 10.3903C7.94854 10.4116 7.91469 10.4231 7.87996 10.4231C7.84523 10.4231 7.81138 10.4116 7.78321 10.3903L6.81734 9.63897L7.29697 12.7173ZM9.89686 6.61274C9.99132 6.57912 10.0739 6.51641 10.1339 6.43279C10.1939 6.34917 10.2284 6.24853 10.2331 6.144C10.2377 6.03946 10.2122 5.93588 10.1599 5.84678C10.1076 5.75767 10.0309 5.68717 9.93986 5.64448L9.89686 5.65836V6.61274ZM5.63954 5.90957C5.61103 5.97687 5.59645 6.04976 5.59678 6.1234C5.59707 6.23081 5.62901 6.33548 5.68823 6.42309C5.74745 6.51069 5.83104 6.57694 5.92756 6.61274V5.67398L5.76217 5.73298C5.70985 5.78208 5.66805 5.84227 5.63954 5.90957ZM6.25833 5.94988V6.81749C6.25833 7.2777 6.43258 7.71907 6.74274 8.04448C7.0529 8.3699 7.47357 8.55272 7.91221 8.55272C8.35084 8.55272 8.77152 8.3699 9.08168 8.04448C9.39184 7.71907 9.56609 7.2777 9.56609 6.81749V5.97071C9.32131 5.89262 8.7838 5.67919 8.5258 5.2367C8.27585 5.49849 7.96337 5.6849 7.62113 5.77636C7.17354 5.88191 6.71699 5.94004 6.25833 5.94988ZM7.38086 9.23772C7.35635 9.26946 7.32196 9.29111 7.28374 9.29887L7.00754 9.3596L7.88409 10.0398L8.80696 9.35613L8.54399 9.30234C8.50577 9.29458 8.47137 9.27293 8.44687 9.24119C8.42237 9.20945 8.40932 9.16965 8.41003 9.12881V8.83209C8.08484 8.92235 7.74288 8.92235 7.4177 8.83209V9.12534C7.41841 9.16618 7.40536 9.20598 7.38086 9.23772ZM10.1012 12.0436H10.1907C10.25 12.0435 10.3069 12.0198 10.3488 11.9777C10.3908 11.9356 10.4144 11.8785 10.4145 11.8189V11.5943H10.6382C10.6976 11.5942 10.7544 11.5705 10.7964 11.5284C10.8383 11.4863 10.8619 11.4292 10.862 11.3696V11.2797C10.8619 11.2202 10.8383 11.1631 10.7964 11.121C10.7544 11.0789 10.6976 11.0552 10.6382 11.0551H10.4145V10.8304C10.4144 10.7709 10.3908 10.7138 10.3488 10.6717C10.3069 10.6296 10.25 10.6059 10.1907 10.6058H10.1012C10.0419 10.6059 9.98499 10.6296 9.94304 10.6717C9.90109 10.7138 9.87749 10.7709 9.87742 10.8304V11.0551H9.65365C9.59433 11.0552 9.53745 11.0789 9.4955 11.121C9.45355 11.1631 9.42995 11.2202 9.42988 11.2797V11.3696C9.42995 11.4292 9.45355 11.4863 9.4955 11.5284C9.53745 11.5705 9.59433 11.5942 9.65365 11.5943H9.87742V11.8189C9.87749 11.8785 9.90109 11.9356 9.94304 11.9777C9.98499 12.0198 10.0419 12.0435 10.1012 12.0436Z" fill="white"/>
</svg>
