<svg width="14" height="14" viewBox="0 0 14 14" fill="none" xmlns="http://www.w3.org/2000/svg">
<path d="M5.53978 0C7.00902 0 8.41809 0.583672 9.457 1.62261C10.4959 2.66156 11.0796 4.07067 11.0796 5.53995C11.0796 6.75408 10.6889 7.87665 10.027 8.78986L13.7392 12.5022C13.8998 12.6604 13.993 12.8744 13.9996 13.0997C14.0062 13.3249 13.9256 13.544 13.7747 13.7113C13.6237 13.8786 13.414 13.9812 13.1892 13.9977C12.9645 14.0141 12.7421 13.9432 12.5683 13.7997L12.5018 13.7397L8.78959 10.0273C7.84501 10.7133 6.70715 11.0818 5.53978 11.0799C4.07054 11.0799 2.66148 10.4962 1.62256 9.45729C0.583654 8.41835 0 7.00924 0 5.53995C0 4.07067 0.583654 2.66156 1.62256 1.62261C2.66148 0.583672 4.07054 2.18941e-08 5.53978 0V0ZM5.53978 1.74946C4.53451 1.74946 3.57041 2.14881 2.85958 2.85967C2.14875 3.57052 1.7494 4.53465 1.7494 5.53995C1.7494 6.54525 2.14875 7.50938 2.85958 8.22024C3.57041 8.93109 4.53451 9.33045 5.53978 9.33045C6.54505 9.33045 7.50915 8.93109 8.21998 8.22024C8.93082 7.50938 9.33016 6.54525 9.33016 5.53995C9.33016 4.53465 8.93082 3.57052 8.21998 2.85967C7.50915 2.14881 6.54505 1.74946 5.53978 1.74946V1.74946Z" fill="#718198"/>
</svg>
