<svg width="12" height="14" viewBox="0 0 12 14" fill="none" xmlns="http://www.w3.org/2000/svg">
<path d="M6.31459 5.56499V6.26888C6.31459 6.49243 6.35835 6.67999 6.44472 6.82611C6.56387 7.02777 6.75943 7.14334 6.98149 7.14334C7.19904 7.14334 7.41524 7.03525 7.624 6.82227L9.90276 4.49741C10.4031 3.98695 10.4031 3.15639 9.90276 2.64594L7.624 0.321075C7.41524 0.107986 7.19904 0 6.98149 0C6.64951 0 6.31459 0.270447 6.31459 0.874466V1.51373C3.07934 1.70866 0.40106 4.2417 0.00301356 7.55809C-0.0192862 7.7433 0.0839419 7.92061 0.25407 7.98929C0.302229 8.00873 0.352377 8.01813 0.401897 8.01813C0.527321 8.01813 0.648975 7.95821 0.726448 7.85022C1.79412 6.36191 3.50837 5.47334 5.31204 5.47334C5.64622 5.47334 5.98229 5.5041 6.31459 5.56499Z" fill="#718198"/>
<path d="M11.7458 6.01067C11.5757 5.94188 11.3816 5.99913 11.2734 6.14984C10.2059 7.63805 8.49163 8.52661 6.68796 8.52661C6.35378 8.52661 6.01771 8.49585 5.68541 8.43497V7.73108C5.68541 7.12706 5.35039 6.85661 5.01851 6.85661C4.80096 6.85661 4.58476 6.96471 4.3759 7.1778L2.09713 9.50255C1.5969 10.013 1.5969 10.8436 2.09724 11.3541L4.3759 13.6789C4.58476 13.892 4.80096 14 5.01851 14C5.35039 14 5.68541 13.7295 5.68541 13.1255V12.4862C8.92077 12.2913 11.5989 9.75826 11.997 6.44197C12.0193 6.25665 11.9161 6.07935 11.7458 6.01067Z" fill="#718198"/>
</svg>
