<svg width="16" height="16" viewBox="0 0 16 16" fill="none" xmlns="http://www.w3.org/2000/svg">
<path fill-rule="evenodd" clip-rule="evenodd" d="M7.70444 4.90878L6.83333 6.00098C4.3964 8.53696 2.70598 11.3698 1.76222 14.5C3.40582 14.4637 5.01069 14.1435 6.57651 13.5392C8.60916 12.7541 10.0508 11.6204 10.9011 10.1382V10.1303C11.1654 9.67054 11.4921 8.88047 11.881 7.75976H11.8889C12.3658 6.40647 12.7314 5.45852 12.9857 4.91622C13.5457 3.67666 14.2171 2.74188 15 2.11172C13.1126 1.70391 11.7413 1.5 10.8857 1.5C7.21429 1.5 4.57513 2.45539 2.96793 4.36647C1.65598 5.94164 0.999999 8.2373 0.999999 11.2536C0.999999 11.9975 1.09598 12.7745 1.28778 13.5857C1.28778 13.5908 1.29058 13.5984 1.29571 13.6089C2.30153 10.6753 4.43778 7.77525 7.70444 4.90878Z" fill="#718198"/>
</svg>
