<svg width="16" height="16" viewBox="0 0 16 16" fill="none" xmlns="http://www.w3.org/2000/svg">
<path d="M0 8C0 3.58172 3.58172 0 8 0C12.4183 0 16 3.58172 16 8C16 12.4183 12.4183 16 8 16C3.58172 16 0 12.4183 0 8Z" fill="#718198"/>
<path fill-rule="evenodd" clip-rule="evenodd" d="M7.78889 5.85992L7.16667 6.61607C5.426 8.37174 4.21856 10.3329 3.54444 12.5C4.71844 12.4749 5.86478 12.2532 6.98322 11.8348C8.43511 11.2913 9.46489 10.5064 10.0722 9.48026V9.47479C10.261 9.15652 10.4943 8.60956 10.7721 7.83368H10.7778C11.1184 6.89679 11.3796 6.24052 11.5612 5.86507C11.9612 5.00692 12.4408 4.35976 13 3.9235C11.6519 3.64117 10.6723 3.5 10.0612 3.5C7.43878 3.5 5.55367 4.16142 4.40567 5.48448C3.46856 6.57498 3 8.16428 3 10.2525C3 10.7675 3.06855 11.3054 3.20555 11.867C3.20555 11.8705 3.20756 11.8758 3.21122 11.8831C3.92967 9.85216 5.45556 7.84441 7.78889 5.85992Z" fill="white"/>
</svg>
