<svg width="16" height="16" viewBox="0 0 16 16" fill="none" xmlns="http://www.w3.org/2000/svg">
<path d="M15 8C15 11.3077 12.3522 14 9.09565 14C7.89348 14 6.73696 13.6308 5.74783 12.9538C5.47391 12.7538 5.39783 12.3846 5.59565 12.0923C5.79348 11.8154 6.1587 11.7385 6.44783 11.9385C7.22391 12.4769 8.15217 12.7692 9.09565 12.7692C11.6826 12.7692 13.7826 10.6308 13.7826 8C13.7826 5.36923 11.6826 3.23077 9.09565 3.23077C6.56956 3.23077 4.5 5.27692 4.4087 7.83077L5.82391 6.38462C6.06739 6.13846 6.44783 6.13846 6.6913 6.38462C6.93478 6.63077 6.93478 7.01539 6.6913 7.26154L4.36304 9.61539C4.2413 9.73846 4.08913 9.8 3.93696 9.8C3.76956 9.8 3.61739 9.73846 3.51087 9.61539L1.18261 7.24615C0.93913 7 0.93913 6.61539 1.18261 6.36923C1.42609 6.12308 1.80652 6.12308 2.05 6.36923L3.20652 7.55385C3.41957 4.46154 5.97609 2 9.09565 2C12.3522 2 15 4.69231 15 8ZM9.06522 4.50769C8.73043 4.50769 8.45652 4.78462 8.45652 5.12308V8C8.45652 8.16923 8.53261 8.32308 8.65435 8.43077L9.96304 9.75385C10.0848 9.87692 10.237 9.93846 10.4043 9.93846C10.5565 9.93846 10.7239 9.87692 10.8304 9.75385C11.0739 9.50769 11.0587 9.12308 10.8152 8.87692L9.67391 7.73846V5.12308C9.67391 4.78462 9.4 4.50769 9.06522 4.50769Z" fill="#718198"/>
</svg>
