<svg width="16" height="16" viewBox="0 0 16 16" fill="none" xmlns="http://www.w3.org/2000/svg">
<path fill-rule="evenodd" clip-rule="evenodd" d="M12.3586 10.5295C12.6802 10.852 13 11.2348 13 11.7152V14.7028C13 14.8685 12.8657 15.0028 12.7 15.0028H3.21373C3.18251 14.9981 3.15253 14.987 3.12556 14.9702C3.09858 14.9534 3.07515 14.9312 3.05665 14.9049C3.03814 14.8787 3.02494 14.8489 3.01782 14.8173C3.0107 14.7857 3.00981 14.7529 3.01519 14.721L3 11.6034C3 11.1565 3.27429 10.7598 3.57707 10.442C3.87986 10.1242 4.26972 9.90886 4.69463 9.82478L6.7053 9.38254V8.9962C6.24331 8.78038 5.84611 8.44108 5.5551 8.01369C5.2641 7.5863 5.08996 7.08647 5.05085 6.56633C4.8431 6.52393 4.65026 6.42491 4.49249 6.27963C4.33473 6.13435 4.21784 5.94815 4.15406 5.74051C4.09028 5.53287 4.08195 5.31142 4.12995 5.09934C4.17795 4.88726 4.2805 4.69234 4.42688 4.53497C4.35598 4.13404 4.16926 2.97256 4.59233 2.1051C5.12884 0.999512 6.84711 0.999512 7.87287 0.999512C8.60792 0.999512 8.97663 1.26437 9.14443 1.44904C9.49896 1.36156 10.3262 1.2425 10.8698 1.79408C11.5977 2.54248 11.2621 4.08058 11.1818 4.40132C11.3633 4.54198 11.5015 4.73348 11.5799 4.95287C11.6582 5.17225 11.6733 5.41021 11.6234 5.63822C11.5735 5.86622 11.4607 6.07459 11.2986 6.23834C11.1364 6.4021 10.9317 6.51429 10.7091 6.56147C10.67 7.08161 10.4958 7.58144 10.2048 8.00883C9.91381 8.43622 9.51661 8.77552 9.05462 8.99134V9.38254L11.1896 9.90011C11.598 10.0132 12.0369 10.2071 12.3586 10.5295ZM6.99365 14.6068H8.76391L9.4446 10.2767L7.96505 11.3483C7.92479 11.3782 7.87641 11.3942 7.82678 11.3942C7.77715 11.3942 7.72877 11.3782 7.68852 11.3483L6.30823 10.2962L6.99365 14.6068ZM10.7091 6.05849C10.8441 6.01141 10.9621 5.9236 11.0478 5.80651C11.1335 5.68942 11.1829 5.54849 11.1896 5.4021C11.1962 5.25572 11.1598 5.11068 11.085 4.9859C11.0103 4.86112 10.9007 4.7624 10.7705 4.70263L10.7091 4.72206V6.05849ZM4.62507 5.07383C4.58433 5.16808 4.5635 5.27014 4.56397 5.37327C4.56438 5.52366 4.61003 5.67025 4.69465 5.79292C4.77928 5.9156 4.89875 6.00836 5.03667 6.05849V4.74393L4.80032 4.82655C4.72555 4.8953 4.66581 4.97959 4.62507 5.07383ZM5.50937 5.13028V6.34521C5.50937 6.98965 5.75838 7.6077 6.20162 8.06339C6.64486 8.51908 7.24603 8.77508 7.87287 8.77508C8.49971 8.77508 9.10088 8.51908 9.54412 8.06339C9.98736 7.6077 10.2364 6.98965 10.2364 6.34521V5.15944C9.88657 5.0501 9.11843 4.75122 8.74973 4.13161C8.39254 4.4982 7.94598 4.75922 7.45689 4.8873C6.81726 5.0351 6.16482 5.1165 5.50937 5.13028ZM7.11353 9.73429C7.07851 9.77874 7.02936 9.80906 6.97474 9.81992L6.58003 9.90497L7.83269 10.8575L9.15153 9.90011L8.77573 9.82478C8.7211 9.81392 8.67195 9.7836 8.63694 9.73915C8.60192 9.69471 8.58327 9.63898 8.58428 9.58179V9.16629C8.11958 9.29268 7.63089 9.29268 7.16618 9.16629V9.57693C7.16719 9.63412 7.14855 9.68985 7.11353 9.73429ZM11.0012 13.6633H11.1291C11.2139 13.6632 11.2951 13.6301 11.3551 13.5711C11.415 13.5121 11.4488 13.4322 11.4489 13.3488V13.0342H11.7686C11.8534 13.0341 11.9347 13.0009 11.9947 12.9419C12.0546 12.883 12.0883 12.803 12.0884 12.7196V12.5938C12.0883 12.5104 12.0546 12.4304 11.9947 12.3714C11.9347 12.3125 11.8534 12.2793 11.7686 12.2792H11.4489V11.9646C11.4488 11.8812 11.415 11.8012 11.3551 11.7423C11.2951 11.6833 11.2139 11.6501 11.1291 11.65H11.0012C10.9164 11.6501 10.8351 11.6833 10.7752 11.7423C10.7152 11.8012 10.6815 11.8812 10.6814 11.9646V12.2792H10.3616C10.2768 12.2793 10.1956 12.3125 10.1356 12.3714C10.0757 12.4304 10.0419 12.5104 10.0418 12.5938V12.7196C10.0419 12.803 10.0757 12.883 10.1356 12.9419C10.1956 13.0009 10.2768 13.0341 10.3616 13.0342H10.6814V13.3488C10.6815 13.4322 10.7152 13.5121 10.7752 13.5711C10.8351 13.6301 10.9164 13.6632 11.0012 13.6633Z" fill="#718198"/>
</svg>
