<svg width="14" height="14" viewBox="0 0 14 14" fill="none" xmlns="http://www.w3.org/2000/svg">
<path d="M9.69039 5.92336C9.69039 4.88873 9.32376 4.00479 8.59052 3.27154C7.85727 2.5383 6.96816 2.16666 5.92318 2.15662C4.87819 2.14659 3.98908 2.51823 3.25584 3.27154C2.52259 4.02486 2.15597 4.9088 2.15597 5.92336C2.15597 6.93792 2.52259 7.82704 3.25584 8.5907C3.98908 9.35437 4.87819 9.72099 5.92318 9.69057C6.96816 9.66015 7.85727 9.29352 8.59052 8.5907C9.32376 7.88788 9.69039 6.99876 9.69039 5.92336V5.92336ZM14 12.9304C14 13.2218 13.8894 13.473 13.6683 13.6841C13.4472 13.8951 13.196 14.0007 12.9147 14.0007C12.6133 14.0007 12.3621 13.8951 12.1611 13.6841L9.28299 10.806C8.27847 11.4991 7.15837 11.8456 5.92271 11.8456C5.1189 11.8456 4.35037 11.6899 3.61713 11.3785C2.88388 11.067 2.25601 10.6451 1.73352 10.1125C1.21103 9.58002 0.789054 8.95215 0.467593 8.22894C0.146132 7.50573 -0.00958011 6.7372 0.000455744 5.92336C0.0104916 5.10951 0.166204 4.34601 0.467593 3.63283C0.768983 2.91966 1.19096 2.28677 1.73352 1.73417C2.27609 1.18158 2.90395 0.7596 3.61713 0.468246C4.3303 0.176893 5.09883 0.0211803 5.92271 0.00110855C6.74659 -0.0189632 7.51511 0.136749 8.22829 0.468246C8.94146 0.799743 9.56933 1.22172 10.1119 1.73417C10.6545 2.24663 11.0764 2.87952 11.3778 3.63283C11.6792 4.38615 11.8349 5.14966 11.845 5.92336C11.845 7.15902 11.4984 8.27912 10.8053 9.28365L13.6834 12.1617C13.8945 12.3728 14 12.629 14 12.9304V12.9304Z" fill="#718198"/>
</svg>
