<svg width="14" height="14" viewBox="0 0 14 14" fill="none" xmlns="http://www.w3.org/2000/svg">
<path d="M8.75 7.5833C8.42743 7.5833 8.1667 7.84467 8.1667 8.1666V10.5C8.1667 10.8214 7.90533 11.0833 7.5833 11.0833H5.8333V2.3333C5.8333 1.83513 5.51596 1.39005 5.03883 1.22438L4.86612 1.1666H7.5833C7.90533 1.1666 8.1667 1.4285 8.1667 1.75V3.5C8.1667 3.82193 8.42743 4.0833 8.75 4.0833C9.07257 4.0833 9.3333 3.82193 9.3333 3.5V1.75C9.3333 0.785171 8.54813 0 7.5833 0H1.3125C1.29028 0 1.2717 0.00993349 1.25012 0.0128174C1.22203 0.0104675 1.19522 0 1.1667 0C0.52327 0 0 0.523163 0 1.1666V11.6666C0 12.1648 0.317337 12.6098 0.794464 12.7755L4.30504 13.9457C4.42403 13.9825 4.54237 14 4.6667 14C5.31013 14 5.8333 13.4767 5.8333 12.8333V12.25H7.5833C8.54813 12.25 9.3333 11.4648 9.3333 10.5V8.1666C9.3333 7.84467 9.07257 7.5833 8.75 7.5833Z" fill="#718198"/>
<path d="M13.8291 5.4209L11.4957 3.0876C11.329 2.92076 11.0781 2.87056 10.86 2.96092C10.6424 3.05139 10.5 3.26427 10.5 3.5V5.25H8.1667C7.84466 5.25 7.5833 5.51126 7.5833 5.8333C7.5833 6.15533 7.84466 6.4166 8.1667 6.4166H10.5V8.1666C10.5 8.40233 10.6424 8.6152 10.86 8.70567C11.0781 8.79604 11.329 8.74583 11.4957 8.5791L13.8291 6.2457C14.0571 6.01765 14.0571 5.64894 13.8291 5.4209Z" fill="#718198"/>
</svg>
